<!--?xml version="1.0" encoding="utf-8"?-->
<!-- Generator: Adobe Illustrator 18.1.1, SVG Export Plug-In . SVG Version: 6.00 Build 0)  -->

<svg version="1.1" id="_x31_0" xmlns="http://www.w3.org/2000/svg" xmlns:xlink="http://www.w3.org/1999/xlink" x="0px" y="0px" viewBox="0 0 512 512" style="width: 256px; height: 256px; opacity: 1;" xml:space="preserve">
<style type="text/css">
	.st0{fill:#374149;}
</style>
<g>
	<path class="st0" d="M443.303,375.871c-23.996-14.878-62.836-26.992-81.484-32.839c-2.192-0.691-4.462-1.383-6.114-1.922
		c-1.961-2.882-5.309-7.843-8.922-13.304c-7.422-11.153-12.535-19.188-14.805-23.266c-3.883-6.883-9.305-11.266-16.187-12.996
		c-2.5-0.653-4.887-0.848-6.77-0.883c0-2.461,0.039-5.152,0.152-8.113c17.922-16.227,29.84-37.688,36.187-53.223
		c23.801-6.726,29.879-33.644,34.07-52.296c3.766-16.727,2.422-29.492-4.152-39.066c-1-1.461-2.118-2.848-3.309-4.078
		c0.191-16.535-2.691-33.453-8.27-49.797c-1.652-7.922-4.114-16.726-7.766-26.531C337.784,8.794,264.3-6.279,243.421,2.259
		c-20.035-2.617-36.722,4-50.297,15.418c-5.5,3.656-10.382,8.039-14.613,13.035c-24.918,29.496-38.84,67.258-38.492,103.171
		c-1.192,1.23-2.27,2.618-3.27,4.078c-6.574,9.574-7.922,22.339-4.153,39.066c4.191,18.652,10.27,45.57,34.031,52.296
		c6.383,15.535,18.305,37.031,36.222,53.262c0.078,2.922,0.157,5.614,0.157,8.074c-1.887,0.035-4.27,0.23-6.809,0.883
		c-6.844,1.77-12.305,6.113-16.149,12.996c-2.269,4.078-7.422,12.113-14.804,23.266c-3.614,5.461-6.962,10.382-8.922,13.266
		c-1.808,0.578-4.343,1.308-6.805,2.078c-18.534,5.5-57.026,16.918-80.714,31.222c-30.957,18.692-30.839,42.57-30.609,106.442
		c0.039,6.691,0.078,13.843,0.078,21.57V512h435.483v-9.617c0-7.535,0.039-14.535,0.039-21.07
		C474.065,418.516,474.178,394.985,443.303,375.871z M172.843,406.118l12.48-4.817c0.278,4.738,1.734,7.762,4.379,8.871
		c2.73,1.195,18.418,5.383,23.531,6.73c10,11.918,12.652,12.383,13.805,12.574c1.538,0.23,14.422,3.614,23.034,5.961l1.395,0.375
		l2.797,1.086l0.066-0.015l-0.028,0.168l0.922-0.23l0.922,0.23l-0.074-0.461l4.266-1.153c8.653-2.347,21.496-5.73,23.035-5.961
		c1.153-0.191,3.805-0.656,13.805-12.574c6.383-1.691,20.879-5.574,23.535-6.73c2.554-1.094,3.965-3.945,4.336-8.371
		c0.027-0.23,0.082-0.418,0.106-0.66l45.476,13.766l22.832,6.992l-0.019-0.09l0.175,0.054l-7.918-34.195l-4.062-17.914
		c17.438,5.953,37.617,13.824,51.55,22.461c20.957,12.996,21.649,26.649,21.379,89.019c0,0.039,0,0.074,0,0.11
		c0,6.316-5.149,11.426-11.461,11.426H68.887c-6.305,0-11.402-5.102-11.461-11.406c0-0.21-0.004-0.418-0.004-0.629
		c-0.27-64.679,0.343-77.254,21.305-89.902c18.226-11,47.449-20.535,66.754-26.418l-8.446,36.535l-4.918,20.879l0.102-0.039
		l-0.043,0.187L172.843,406.118z M203.46,58.923c16.879,60.602,40.82,82.313,65.148,93.187c1.137,0.203-7.914-17.824-13.234-32.418
		c-0.706-2.062-1.336-4.066-1.843-5.953c22.953,31.453,46.691,38.992,48.262,39.718c1.426,0.66-0.598-2.547-4.696-11.41
		c-0.386-0.93-0.758-1.762-1.167-2.836c0.738,0.406,9.098,5.16,23.414,16.734c3.152,2.586,6.481,5.39,10.172,8.688
		c-0.012-0.07-0.016-0.118-0.027-0.18c0.066,0.054,0.121,0.098,0.183,0.156c-2.312-16.14-2.594-21.328-1.254-31.414
		c0.355-2.398,0.789-5.02,1.347-8.199c0.758,2.442,7.027,22.281,15.516,37.191c2.054,3.695,4.23,7.09,6.476,9.844
		c-0.066-0.13-0.078-0.309-0.14-0.442c0.094,0.113,0.187,0.25,0.281,0.363c-2.797-5.168,1.489-17.59,4.141-24.254
		c0.234-0.555,0.469-1.133,0.695-1.641c4.023,2.855,7.73,9.82,3.934,26.738c-5.152,22.882-9.422,38.878-27.305,38.878
		c-0.691,0-1.422-0.039-2.152-0.078c-2.039,7.614-10.652,29.418-26.148,47.527c-1.539,1.809-3.153,3.578-4.805,5.27
		c-3.426,3.461-7.118,6.73-11.078,9.614c-9.418,6.882-20.492,11.652-33.183,12.382c-12.691-0.73-23.726-5.5-33.184-12.382
		c-3.961-2.883-7.656-6.153-11-9.614c-1.691-1.691-3.304-3.461-4.843-5.27c-15.5-18.109-24.149-39.914-26.188-47.527
		c-0.73,0.039-1.422,0.078-2.152,0.078c-17.882,0-22.113-15.996-27.305-38.878c-1.472-6.551-1.816-11.61-1.441-15.512
		c0.152-1.191,0.374-2.313,0.687-3.355c2.203,4.187,5.195,8.5,8.988,14.472c0.387,0.699,0.786,1.352,1.16,2.122
		c-0.054-0.118-0.027-0.29-0.074-0.414c0.074,0.125,0.14,0.219,0.218,0.344c-0.183-0.39-0.289-0.832-0.386-1.282
		c-0.047-0.218-0.09-0.445-0.118-0.679c-1.074-8.863,11.461-26.457,11.461-26.457s1.703,1.038,5.055,2.37
		c0.664,0.297,1.301,0.586,2.102,0.914c-0.016-0.039-0.02-0.086-0.035-0.125c0.07,0.023,0.113,0.046,0.183,0.07
		c-11.449-31.078,11.68-68.629,20.813-81.687C201.886,60.826,203.163,59.232,203.46,58.923z M215.811,322.922
		c1.305-1.5,3.653-4.309,5.114-13c0.461-2.613,0.809-5.766,1.039-9.609c0.078-1.27,0.152-2.618,0.191-4.039
		c2.809,1.5,5.73,2.882,8.77,4.039c7.382,2.922,15.379,4.766,23.992,5.266l1.078,0.078l1.113-0.078
		c8.618-0.5,16.614-2.344,23.996-5.266c2.18-0.84,4.258-1.895,6.344-2.934c0.793-0.364,1.586-0.672,2.386-1.043
		c0.043,1.398,0.118,2.726,0.192,3.977c0.23,3.843,0.578,6.996,1.038,9.609c1.5,8.691,3.844,11.5,5.114,13
		c4.922,5.77,14.226,13.844,20.844,19.305c-9.078,12.535-27.996,38.722-43.722,60.602c-4.883,6.766-11.035,10.535-17.305,10.535
		c-6.27,0-12.383-3.77-17.266-10.535c-15.726-21.879-34.649-48.066-43.722-60.602C201.585,336.766,210.929,328.692,215.811,322.922z
		" style="fill: rgb(75, 75, 75);"></path>
</g>
</svg>
