<!--?xml version="1.0" encoding="utf-8"?-->
<!-- Generator: Adobe Illustrator 18.0.0, SVG Export Plug-In . SVG Version: 6.00 Build 0)  -->

<svg version="1.1" id="_x31_0" xmlns="http://www.w3.org/2000/svg" xmlns:xlink="http://www.w3.org/1999/xlink" x="0px" y="0px" viewBox="0 0 512 512" style="width: 256px; height: 256px; opacity: 1;" xml:space="preserve">
<style type="text/css">
	.st0{fill:#374149;}
</style>
<g>
	<path class="st0" d="M175.809,229.701c9.242,4.738,19.691,7.39,30.781,7.39c19.614,0,37.294-8.277,49.75-21.539l45.73,24.356
		c-0.402,3.05-0.645,6.106-0.645,9.242c0,37.691,30.625,68.312,68.317,68.312c37.695,0,68.316-30.621,68.316-68.312
		c0-12.86-3.617-24.997-9.805-35.286L512,114.772L487.406,95.56l-80.454,96.363c-10.687-7.07-23.546-11.09-37.21-11.09
		c-21.859,0-41.391,10.289-53.848,26.363l-42.836-22.746c1.203-5.066,1.848-10.29,1.848-15.672
		c0-37.695-30.622-68.317-68.317-68.317c-37.613,0-68.316,30.622-68.316,68.317c0,16.074,5.629,30.941,15.031,42.675L75.586,311.838
		v11.094l18.566,14.625L175.809,229.701z M234.718,168.78c0,11.734-7.23,21.855-17.519,25.957c-3.297,1.449-6.91,2.172-10.61,2.172
		c-1.847,0-3.695-0.16-5.465-0.562c-10.125-2.008-18.324-9.406-21.378-19.129c-0.805-2.653-1.286-5.547-1.286-8.438
		c0-15.516,12.618-28.129,28.129-28.129c13.746,0,25.238,9.965,27.649,23.066C234.558,165.322,234.718,167.014,234.718,168.78z
		 M397.871,249.151v0.718c-0.321,13.344-10.047,24.434-22.742,26.848c-1.046,0.238-2.09,0.402-3.137,0.402
		c-0.722,0.161-1.527,0.161-2.25,0.161c-10.527,0-19.692-5.786-24.512-14.387c-2.332-4.098-3.617-8.758-3.617-13.742
		c0-9.165,4.422-17.282,11.171-22.348c4.742-3.695,10.61-5.785,16.958-5.785c3.859,0,7.637,0.804,11.011,2.332
		C390.801,227.529,397.871,237.576,397.871,249.151z" style="fill: rgb(75, 75, 75);"></path>
	<polygon class="st0" points="442.035,409.888 401.851,409.888 401.851,466.151 345.594,466.151 345.594,409.888 305.406,409.888 
		305.406,466.151 249.149,466.151 249.149,409.888 208.961,409.888 208.961,466.151 152.703,466.151 152.703,409.888 
		112.516,409.888 112.516,466.151 45.851,466.151 45.851,0.002 0,0.002 0,511.998 512,511.998 512,466.151 442.035,466.151 	" style="fill: rgb(75, 75, 75);"></polygon>
</g>
</svg>
