<!--?xml version="1.0" encoding="utf-8"?-->
<!-- Generator: Adobe Illustrator 19.1.1, SVG Export Plug-In . SVG Version: 6.00 Build 0)  -->
<svg version="1.1" id="_x31_0" xmlns="http://www.w3.org/2000/svg" xmlns:xlink="http://www.w3.org/1999/xlink" x="0px" y="0px" viewBox="0 0 512 512" style="width: 256px; height: 256px; opacity: 1;" xml:space="preserve">
<style type="text/css">
	.st0{fill:#374149;}
</style>
<g>
	<path class="st0" d="M500.652,283.374c7.23-6.754,11.05-15.895,11.324-25.102c0.203-5.458-0.886-10.914-3.207-15.961
		c-1.566-3.477-3.75-6.821-6.546-9.754L319.082,38.026c-3.137-3.343-6.683-5.934-10.641-7.777c-0.91-0.438-1.89-0.637-2.828-0.996
		c-0.613-0.234-1.226-0.454-1.851-0.653c-1.954-0.625-3.914-1.074-5.926-1.359c-0.598-0.086-1.196-0.16-1.798-0.215
		c-6.164-0.554-12.426,0.29-18.152,2.95c-3.481,1.57-6.754,3.754-9.687,6.48L12.211,277.507c-2.93,2.726-5.321,5.867-7.094,9.21
		c-5.046,9.477-5.594,20.734-1.57,30.625c1.64,3.954,3.957,7.707,7.094,11.047l47.195,50.141l32.39,34.574H3.004
		c-1.637,0-3.004,1.297-3.004,3.003v65.958c0,1.703,1.367,3.07,3.004,3.07h155.172H286.41h174.344c1.703,0,3.066-1.366,3.066-3.07
		v-65.958c0-1.706-1.363-3.003-3.066-3.003h-56.961l-40.797-0.114L500.652,283.374z M454.675,237.406l-143.586,4.218l-14.172,0.398
		l10.91-160.754l88.027,93.5L454.675,237.406z M273.449,83.522l-10.774,159.606l-1.164,17.054l-8.523,24.008l-17.121,0.137
		l-17.118,0.07l-159.886,1.226h-1.68l-1.011-0.098L273.656,80.792L273.449,83.522z M241.394,413.093l8.59-94.797l25.988-0.203
		c4.438-0.07,8.528-1.774,11.528-4.641c3-2.863,4.98-6.82,5.324-11.254l1.77-25.918l156.746-4.706L301.004,413.105h-54.93
		L241.394,413.093z M54.648,319.726l161.031-1.226l-8.461,94.606h-64.797l-52.527-55.786L54.648,319.726z" style="fill: rgb(75, 75, 75);"></path>
</g>
</svg>
