<!--?xml version="1.0" encoding="utf-8"?-->
<!-- Generator: Adobe Illustrator 24.1.1, SVG Export Plug-In . SVG Version: 6.00 Build 0)  -->
<svg version="1.1" id="_x31_0" xmlns="http://www.w3.org/2000/svg" xmlns:xlink="http://www.w3.org/1999/xlink" x="0px" y="0px" viewBox="0 0 512 512" style="width: 256px; height: 256px; opacity: 1;" xml:space="preserve">
<style type="text/css">
	.st0{fill:#374149;}
</style>
<g>
	<path class="st0" d="M460.926,0H51.074c-6.821,0-12.348,5.527-12.348,12.348v450.328C38.73,489.918,60.882,511.996,88.05,512
		h335.902c27.164-0.004,49.313-22.082,49.321-49.324V12.348C473.274,5.527,467.746,0,460.926,0z M256,106.726
		c-4.973,0-8.938-3.965-8.938-8.942c0-4.902,3.965-8.941,8.938-8.941c4.977,0,8.945,4.039,8.945,8.941
		C264.945,102.762,260.977,106.726,256,106.726z M256,122.086c5.918,0,11.324-2.09,15.504-5.625l-11.61,41.324h-8.652
		l-11.899-42.332C243.672,119.562,249.511,122.086,256,122.086z M255.566,186.41l15.652,55.672
		c-4.183-3.391-9.445-5.406-15.218-5.406c-6.344,0-12.039,2.449-16.367,6.414L255.566,186.41z M255.21,252.106l0.79-0.07
		c4.977,0,8.945,4.039,8.945,9.015c0,4.902-3.968,8.942-8.945,8.942c-4.469,0-8.145-3.246-8.793-7.5l-0.145-1.442
		C247.062,256.363,250.594,252.469,255.21,252.106z M346.289,157.785h-82.645l13.559-48.171v-0.074
		c2.019-3.461,3.102-7.5,3.102-11.754c0-13.414-10.887-24.304-24.305-24.304c-13.41,0-24.301,10.89-24.301,24.304
		c0,1.371,0.144,2.738,0.363,4.039l-0.289,0.07l15.722,55.89h-81.707L84.23,36.054h343.546L346.289,157.785z M253.695,179.778
		l-20.625,73.27l-0.794,2.738l-0.07,0.364l-1.012,3.531l0.578,0.144l-0.074,1.226c0,13.414,10.89,24.301,24.301,24.301
		c13.418,0,24.305-10.886,24.305-24.301c0-4.613-1.227-8.87-3.462-12.476l-19.398-68.797l0.07-0.36h100.238l3.246-4.762
		l87.039-129.945v417.965c0,13.27-10.817,24.086-24.086,24.086H88.05c-13.27,0-24.086-10.816-24.086-24.086V44.711l90.211,134.706
		h99.445L253.695,179.778z" style="fill: rgb(75, 75, 75);"></path>
</g>
</svg>
